# xmcd
#
# Track frame offsets:
#  150
#  13440
#  27341
#  42779
#  63033
#  84112
#  97037
#  111713
#  127316
#  149809
#  163045
#  173733
#  188836
#  197942
#
# Disc length: 2832 seconds
#
# Revision: 0
# Processed by: cddbd v1.5.1PL2 Copyright (c) Steve Scherf et al.
# Submitted via: Collectorz.com_Music_Collector 6.11
#
DISCID=cf0b0e0e
DTITLE=Wentus Blues Band - Wentus Blues Band
DYEAR=2006
DGENRE=Blues
TTITLE0=Don't Start Me To Talkin'
TTITLE1=Hallelujah (I Love Her So)
TTITLE2=Baby Please Don't Go
TTITLE3=Total Abstainer Boogie
TTITLE4=When A Man Loves A Woman
TTITLE5=The Walk
TTITLE6=Evil Is Goin' On
TTITLE7=Think Twice Before You Go
TTITLE8=Love In Vain
TTITLE9=The Blues Had A Baby And They Named It Rock 'n' Roll (#2)
TTITLE10=Violent Love
TTITLE11=I Just Wanna Make Love To You (Bonus Track)
TTITLE12=Baby Kate (Bonus Track)
TTITLE13=A Tribute To Nedervetil
EXTD=
EXTT0=
EXTT1=
EXTT2=
EXTT3=
EXTT4=
EXTT5=
EXTT6=
EXTT7=
EXTT8=
EXTT9=
EXTT10=
EXTT11=
EXTT12=
EXTT13=
PLAYORDER=
